Coordinates
version=1
nRows=14
nColumns=36
inDegrees=yes

Units are S.I. units (second, meters, Newtons, ...)
If the header above contains a line with 'inDegrees', this indicates whether rotational values are in degrees (yes) or radians (no).

endheader
time	pelvis_tilt	pelvis_list	pelvis_rotation	pelvis_tx	pelvis_ty	pelvis_tz	hip_flexion_r	hip_adduction_r	hip_rotation_r	knee_angle_r	knee_angle_r_beta	ankle_angle_r	subtalar_angle_r	mtp_angle_r	hip_flexion_l	hip_adduction_l	hip_rotation_l	knee_angle_l	knee_angle_l_beta	ankle_angle_l	subtalar_angle_l	mtp_angle_l	lumbar_extension	lumbar_bending	lumbar_rotation	arm_flex_r	arm_add_r	arm_rot_r	elbow_flex_r	pro_sup_r	arm_flex_l	arm_add_l	arm_rot_l	elbow_flex_l	pro_sup_l
      0.00000000	     -4.53168183	     -1.97137585	     -5.16707145	      1.39537915	      0.90901264	     -0.09662923	      1.00153874	     -6.50465733	     -8.18134383	      3.30366266	      0.05765979	     17.97344399	      7.60139172	     -7.12061376	     -2.41278655	    -11.07979808	    -11.45113573	      2.50226930	      0.04367284	     15.62284998	      4.66261362	     -7.12061376	      4.96985653	      3.13810161	      4.69293115	      1.91823116	    -13.42569128	     16.12695854	     40.35145082	     81.20318950	    -11.07814143	     -9.74951301	     -2.68111010	     12.87055015	     83.83936029
      0.01666670	     -2.92857828	     -1.06807028	     -6.15533326	      1.39684585	      0.90755152	     -0.09861564	     -0.08504584	     -7.93313724	     -9.06950550	      3.64263495	      0.06357597	     18.09745591	      7.52178723	     -7.21370731	     -4.20737827	     -9.84884756	    -14.14279695	      2.93933877	      0.05130114	     15.40241185	      4.49959906	     -7.21370731	      3.31782335	      2.35737239	      4.63222030	      2.73286562	    -13.22390714	     15.49369379	     39.00230128	     84.45208218	    -12.15908440	     -9.23848979	     -8.65799843	     15.17875464	     86.95301503
      0.03333330	     -0.95570452	     -1.36630688	     -6.03851083	      1.39023508	      0.90466633	     -0.09492399	     -1.46547844	     -7.77466698	     -9.55619751	      4.60616439	      0.08039273	     19.38533534	      6.45191191	     -7.35299069	     -5.67249716	    -10.07339605	    -16.02139260	      4.22428289	      0.07372764	     17.11630361	      4.57241695	     -7.35299069	      0.34500769	      2.54828246	      4.57366133	      2.57109154	    -13.68310869	     14.18418502	     38.15604662	     87.20052560	    -10.71131913	     -9.51104263	     -9.10860860	     15.64769765	     91.96313998
      0.05000000	      0.06581505	     -1.29546450	     -5.23770653	      1.38772094	      0.90752386	     -0.09621704	     -2.32738766	     -8.05822711	    -10.64985710	      5.11321147	      0.08924238	     20.05910329	      6.20164490	     -7.42750290	     -5.97836398	    -10.11513869	    -16.62962834	      5.08485066	      0.08874739	     17.99037112	      4.84743594	     -7.42750290	     -1.65267571	      2.39164674	      3.65538605	      2.83635606	    -14.17096256	     14.06519985	     37.83007865	     88.60427101	    -10.25212501	     -9.75165031	     -9.61816078	     17.54476446	     92.70309614
      0.06666670	      1.00272644	     -1.14490488	     -4.88610249	      1.39050622	      0.90503206	     -0.09990420	     -3.20183165	     -8.40505093	    -11.11596970	      5.36553471	      0.09364625	     20.56170902	      5.71920683	     -7.42963138	     -6.79210897	     -9.92043608	    -16.70269199	      5.30552155	      0.09259882	     18.47129963	      5.17463927	     -7.42963138	     -3.21501745	      2.34700739	      3.56566855	      2.82472372	    -14.62383321	     13.94463247	     37.29636301	     88.68114292	     -9.36030866	     -9.84758805	     -9.37511206	     18.60938644	     92.79766909
      0.08333330	      1.24224211	     -0.96461531	     -4.59000398	      1.38487487	      0.90326466	     -0.09652850	     -3.28958054	     -8.67867628	    -11.71774805	      5.61114822	      0.09793301	     20.71580684	      5.16573522	     -7.43011847	     -6.83258330	     -9.86619699	    -16.57124050	      5.41427131	      0.09449686	     18.59188707	      5.36179544	     -7.43011847	     -3.88610317	      2.29860234	      3.38392976	      2.77417960	    -14.85558862	     13.94437653	     36.94916981	     88.73635418	     -8.52365688	    -10.00249832	     -9.26503372	     19.23709793	     92.83240192
      0.10000000	      1.83904178	     -0.77037256	     -4.26000185	      1.38423803	      0.90455737	     -0.09665617	     -4.04562863	     -8.93303631	    -12.10146578	      5.45408969	      0.09519182	     20.61941987	      4.79292202	     -7.44211880	     -7.44353830	     -9.70240629	    -16.37487636	      5.20502462	      0.09084482	     18.60536863	      5.57257927	     -7.44211880	     -4.93637354	      2.08808465	      3.09805744	      3.08954420	    -14.89230581	     14.04663199	     35.04591661	     88.68237724	     -8.17127703	    -10.53078087	     -6.91292033	     20.91719715	     92.23193083
      0.11666670	      2.16142875	     -0.60309036	     -3.97535074	      1.38343389	      0.90318818	     -0.09694134	     -4.52459192	     -9.12480198	    -12.41929428	      5.24879197	      0.09160870	     20.50243636	      4.38807512	     -7.46071939	     -7.82171706	     -9.54360950	    -16.17673395	      4.86589911	      0.08492596	     18.42085775	      5.60400989	     -7.46071939	     -5.56874512	      1.96202531	      3.02101661	      2.83957906	    -15.07049373	     14.06619908	     33.90385110	     90.87915429	     -7.36165291	    -10.93743176	     -5.14188812	     21.46365435	     92.31589639
      0.13333330	      2.17842588	     -0.48598509	     -3.70349984	      1.38345592	      0.90840281	     -0.09710225	     -4.63710809	     -9.21707097	    -12.73004388	      5.20469889	      0.09083913	     20.38881605	      4.13429969	     -7.46102573	     -7.85231347	     -9.46351437	    -16.08783252	      4.61324178	      0.08051626	     18.09499314	      5.76340128	     -7.46102573	     -5.81939781	      1.94480415	      2.94645595	      2.54434427	    -15.33467528	     13.99568899	     33.36163949	     90.94633636	     -6.65760983	    -10.94828055	     -5.17059687	     21.87540671	     92.32177160
      0.15000000	      2.63063059	     -0.42144404	     -3.55262474	      1.38311260	      0.91393860	     -0.09707631	     -5.28651035	     -9.22282401	    -12.93231401	      4.95939509	      0.08655777	     19.97546406	      3.89760650	     -7.46204060	     -8.43224587	     -9.34448966	    -15.97808483	      4.19714702	      0.07325403	     17.61958903	      5.55986992	     -7.46204060	     -6.53492066	      1.82215663	      3.42084779	      2.48632122	    -15.30022628	     13.69128947	     31.46138204	     91.36127646	     -5.68359424	    -10.96163227	     -4.94720727	     22.29614540	     92.58987447
      0.16666670	      2.73090381	     -0.34202527	     -3.38888956	      1.38303622	      0.91397997	     -0.09719091	     -5.54345126	     -9.23044724	    -13.13607199	      4.80010555	      0.08377765	     19.72562264	      3.62535883	     -7.48040529	     -8.62957218	     -9.22068972	    -15.87359797	      3.81123522	      0.06651860	     17.12494818	      5.44096511	     -7.48040529	     -6.73242807	      1.84476328	      3.61046689	      2.55298345	    -14.92743345	     11.51405127	     29.34927286	     97.24489672	     -4.68973186	    -11.01749022	     -3.98216048	     21.86794262	     95.13653514
      0.18333330	      2.85422861	     -0.27818672	     -3.28673663	      1.38235446	      0.91396624	     -0.09727402	     -5.73693095	     -9.23373771	    -13.30338059	      4.74023662	      0.08273274	     19.58228681	      3.43636274	     -7.49105529	     -8.81698259	     -9.10400219	    -15.83185684	      3.49692911	      0.06103293	     16.72329385	      5.34540074	     -7.49105529	     -7.02864275	      1.82870380	      3.79645900	      2.70152860	    -14.79239451	     11.00649089	     27.71328232	     98.64395774	     -3.55985407	    -11.00717312	     -3.24493597	     21.75472808	     95.56805177
      0.20000000	      2.96918883	     -0.23479855	     -3.20104116	      1.37769609	      0.90895720	     -0.09365161	     -5.92521408	     -9.18068093	    -13.58629626	      4.61082314	      0.08047405	     19.55512426	      3.24737617	     -7.49115371	     -8.88112724	     -9.06357257	    -15.81496987	      3.38250636	      0.05903587	     16.48948642	      5.36557460	     -7.49115371	     -7.41396262	      1.79797827	      3.87238730	      2.76961287	    -14.75427581	     11.02192529	     26.92945744	     98.78990054	     -2.49386717	    -10.97558770	     -3.13838694	     22.07775827	     95.72856041
      0.21666670	      3.09025971	     -0.21718100	     -3.17344708	      1.37743719	      0.91178711	     -0.09332731	     -6.03507589	     -9.11279815	    -13.64115061	      4.62029545	      0.08063937	     19.53058658	      3.03819663	     -7.49393991	     -8.92493707	     -9.05651060	    -15.78494332	      3.32196920	      0.05797930	     16.21728459	      5.05195010	     -7.49393991	     -7.72869807	      1.78285878	      3.96769884	      3.31302300	    -14.57909172	     11.39202469	     25.02884006	     99.18766874	     -1.35511832	    -11.15324790	     -0.99764267	     22.06238448	     96.13811358
